<?xml version="1.0" encoding="UTF-8"?>
<svg xmlns="http://www.w3.org/2000/svg" width="50pt" height="35pt" viewBox="0 0 81.07 74.37" version="1.1">
    <path fill='#009bdb'
          d="M62.65,7.64a9,9,0,0,1,1.82-2.35A7.71,7.71,0,0,1,72.4,3.61a7.58,7.58,0,0,1,5.32,6,11,11,0,0,1,.21,2.07c0,6.94,0,13.89,0,20.84,0,.56,0,.56-.55.56-2.54,0-5.08,0-7.62,0-.3,0-.38-.1-.38-.38,0-1.89,0-3.77,0-5.66q0-6.67,0-13.35a7.36,7.36,0,0,0-.06-.8A1.17,1.17,0,0,0,67,13c0,.43,0,.86,0,1.29q0,9.2,0,18.39c0,.34-.09.4-.41.4H58.7c-.29,0-.35-.08-.35-.35v-19a3.79,3.79,0,0,0-.09-.89A1.07,1.07,0,0,0,57.07,12,1.15,1.15,0,0,0,56,13.12c0,1.11,0,2.23,0,3.34a47,47,0,0,1-.22,5.43A11.66,11.66,0,0,1,52,29.36c-.74.68-1.55,1.29-2.32,1.93-.16.13-.24.1-.34-.07q-2.12-3.37-4.24-6.75a.26.26,0,0,1,0-.36c.37-.47.74-.95,1.09-1.43a5.69,5.69,0,0,0,1.11-3.37c0-2.28,0-4.56,0-6.84a11.1,11.1,0,0,1,.56-4.05A8,8,0,0,1,62.19,7Z"/>
    <path fill='#245da3'
          d="M40.22,33.74c-6.37,0-12.73-5.26-14.07-12.47A15.3,15.3,0,0,1,38.22,3.43a15,15,0,0,1,9.21,1c.22.1.26.18.14.4-1.29,2.32-2.56,4.63-3.83,7-.12.23-.22.29-.49.2a6.75,6.75,0,1,0-2.71,13.15A6.67,6.67,0,0,0,42.81,25a.26.26,0,0,1,.35.14c1.43,2.31,2.87,4.63,4.31,6.93.14.22.1.29-.12.38A17,17,0,0,1,40.22,33.74Z"/>
    <path fill='#009bdb'
          d="M24.78,13.57v9.36A10.76,10.76,0,0,1,3.44,25a14.14,14.14,0,0,1-.19-2.43c0-6.2,0-12.41,0-18.62,0-.27.08-.37.33-.43a8.08,8.08,0,0,1,9,4,1.55,1.55,0,0,1,.18.7c0,5.16,0,10.33,0,15.49a1.27,1.27,0,0,0,.8,1.31,1.21,1.21,0,0,0,1.64-1.1c0-1.12,0-2.23,0-3.35q0-6.16,0-12.35a1.38,1.38,0,0,1,.17-.66,8.05,8.05,0,0,1,9-4c.27.06.36.17.35.45,0,1.6,0,3.21,0,4.82s0,3.21,0,4.82Z"/>
    <path fill='#245da3'
          d="M55.17,30.51a18.54,18.54,0,0,1-28.81-1.09c-.37.57-.71,1.17-1.11,1.71a13.59,13.59,0,0,1-9.87,5.66A13.84,13.84,0,0,1,.31,25.3a18.09,18.09,0,0,1-.2-2.94c0-6.93,0-13.85,0-20.78A.36.36,0,0,1,.4,1.16,32.76,32.76,0,0,1,3.87.26a10.89,10.89,0,0,1,9.76,3.32L14,4A11.23,11.23,0,0,1,25.79.61c.6.17,1.2.37,1.81.53.24.07.34.16.33.44,0,1.22,0,2.44,0,3.66v.37c.41-.38.77-.74,1.16-1.07A18.42,18.42,0,0,1,48.9,1.7a.58.58,0,0,0,.61,0,11.15,11.15,0,0,1,12.81.79c.19.16.3.19.52,0A11.18,11.18,0,0,1,80.79,9,10.31,10.31,0,0,1,81,11.09c0,8.26,0,16.53,0,24.79,0,.28-.08.33-.34.33H55.5c-.26,0-.34-.07-.33-.33,0-1.66,0-3.31,0-5ZM26.3,28.36c3.53,4.94,8.32,7.79,14.5,7.91s11.13-2.47,14.94-7.38v.35c0,2,0,4,0,6,0,.31.08.38.39.38H80.07c.31,0,.39-.07.39-.38,0-8,0-15.93,0-23.9a12.05,12.05,0,0,0-.28-2.54A10.6,10.6,0,0,0,62.9,3.16c-.27.23-.4.2-.64,0a10.55,10.55,0,0,0-12.74-.82.5.5,0,0,1-.57,0A17.89,17.89,0,0,0,27.74,6.68l-.38.43v-.4c0-1.58,0-3.17,0-4.75a.32.32,0,0,0-.29-.37c-.52-.14-1-.33-1.56-.47a10.47,10.47,0,0,0-9.94,2.12c-.57.47-1.06,1-1.6,1.59l-.21-.24A10.52,10.52,0,0,0,4.3.75,19.08,19.08,0,0,0,1,1.58.36.36,0,0,0,.66,2c0,6.7,0,13.4,0,20.1A19.27,19.27,0,0,0,.9,25.32a13.21,13.21,0,0,0,12.61,11,12.92,12.92,0,0,0,11.16-5.34C25.29,30.14,25.76,29.21,26.3,28.36Z"/>
</svg>
