<?xml version="1.0" encoding="UTF-8"?>
<svg xmlns="http://www.w3.org/2000/svg" width="30pt" height="30pt" viewBox="0 0 30 30" version="1.1">
    <g id="surface1">
        <path style=" stroke:none;fill-rule:nonzero;fill:#0064B0;fill-opacity:1;"
              d="M 20.722656 8.882813 C 20.722656 5.613281 18.070313 2.960938 14.800781 2.960938 C 11.535156 2.960938 8.882813 5.613281 8.882813 8.882813 C 8.882813 9.046875 8.882813 9.703125 8.882813 9.867188 C 8.882813 13.136719 11.535156 15.789063 14.800781 15.789063 C 18.070313 15.789063 20.722656 13.136719 20.722656 9.867188 C 20.722656 9.703125 20.722656 9.046875 20.722656 8.882813 Z "/>
        <path style=" stroke:none;fill-rule:nonzero;fill:#0064B0;fill-opacity:1;"
              d="M 25.289063 22.785156 C 23.828125 20.890625 18.753906 18.75 14.796875 18.75 C 10.847656 18.75 5.773438 20.890625 4.3125 22.785156 C 3.414063 23.957031 4.269531 25.65625 5.75 25.65625 L 23.851563 25.65625 C 25.332031 25.65625 26.191406 23.957031 25.289063 22.785156 Z "/>
    </g>
</svg>
