<svg xmlns="http://www.w3.org/2000/svg" viewBox="0 0 999.96 727.42">
    <defs>
        <style>
            .cls-1{fill:#cde6de;}.cls-2{fill:#7cc1bc;}.cls-3{fill:#b2754e;}.cls-4{fill:#fefefe;}.cls-5{fill:#fdfefd;}.cls-6{fill:#193848;}.cls-7{fill:#a297c9;}.cls-8{fill:#fef7db;}.cls-9{fill:#fdfdfd;}.cls-10{fill:#9ad7f6;}.cls-11{fill:#183747;}.cls-12{fill:#193747;}.cls-13{fill:#373737;}.cls-14{fill:#1f4a5e;}.cls-15{fill:#214b5e;}.cls-16{fill:#eeecb9;}.cls-17{fill:#45aea0;}.cls-18{fill:#363736;}.cls-19{fill:#936440;}.cls-20{fill:#936340;}.cls-21{fill:#373736;}.cls-22{fill:#7dc1bb;}.cls-23{fill:#193847;}.cls-24{fill:#7bbfba;}.cls-25{fill:#bde3fa;}.cls-26{fill:#c0e4fa;}.cls-27{fill:#343738;}.cls-28{fill:#7cc1bb;}.cls-29{fill:#cbe4db;}.cls-30{fill:#7dbab4;}.cls-31{fill:#cbe1d7;}.cls-32{fill:#cde5dd;}.cls-33{fill:#99d7f5;}.cls-34{fill:#bfe4fa;}.cls-35{fill:#fcf6db;}.cls-36{fill:#20879b;}
        </style>
    </defs>
    <g id="Capa_2" data-name="Capa 2">
        <g id="Capa_1-2" data-name="Capa 1">
            <path class="cls-1"
                  d="M.08,487.9Q.08,246.31,0,4.73C0,1.21.43,0,4.45,0Q500,.18,995.5,0c4,0,4.46,1.21,4.46,4.73q-.13,241.59-.08,483.17c-1.77,1.87-4.08,2-6.45,2-29.75,0-59.51.07-89.26-.07-3.07,0-7.15.57-6.74-4.76,1.53-2.1,3.82-1.65,5.9-1.66,8.59-.07,17.17-.06,25.75,0a24,24,0,0,0,7.32-.86c6.34-1.75,9.33-5.33,8.86-10.62s-4.59-8.83-11.08-9.19c-3-.16-6,0-8.93-.14-2.16-.14-4.35-.32-5.54-2.61-1.07-10.7-2-21.39.5-32,1.74-1.9,4.13-1.83,6.43-2.13,8.61-1.16,13.11-5.9,13.17-14.64q.26-43.36,0-86.74c-.07-9.45-5.29-14.36-14.71-14.45-11.3-.1-22.6,0-33.9-.05-2.8,0-5.72.26-8-2-1.83-2.7-1.34-5.77-1.35-8.73q0-75.9,0-151.81c0-1.17,0-2.33,0-3.5,0-8.71-.1-8.8-9-8.8H738.47c-.84,0-1.67,0-2.5,0-5.18.15-5.79.73-6,5.73-.06,1.82,0,3.66,0,5.49q0,99.87,0,199.75c0,3.13.52,6.35-1,9.32-1.49,2.24-3.89,2.28-6.19,2.51-6.83.69-7.55,1.42-6.69,7.93,1.84,13.8,3.47,27.62,5.21,41.44.37,2.94,1.05,6-1.51,8.41a4.63,4.63,0,0,1-2.29.94c-11.44.34-22.89.95-34.31-.33a4,4,0,0,1-2.24-1.8,16.05,16.05,0,0,0-11.28-8.66,7.6,7.6,0,0,1-4.71-3.32c-2.87-5.28-4.78-11-7-16.56a11.52,11.52,0,0,1,1.68-11.37c3-4.2,6-8.44,9.1-12.53,3.48-4.52,5-5,10.27-3.11,8.64,3,7.67,3.59,9.55-5.57,1.78-8.7,1.76-8.71-7.19-8.7a40.92,40.92,0,0,0-8,.31c-4.27.87-6.4,4.24-4.56,8.15s1.08,6.74-1.25,9.71c-3.91,5-7,10.56-11.52,15.06-1.91,1.9-1.76,3.42-.43,5.66a67.23,67.23,0,0,1,8.13,20.27c-1.73,4.48-6.92,6.17-8.62,10.69-2,2.23-4.69,2.34-7.37,2.38-5.16.08-10.33,0-15.49,0-2.17,0-4,.47-4.21,3.16-.15,2.36.25,4.37,3.1,4.8,4.64.71,5.71,4,5.74,8s0,8,0,12c0,2.84.69,4.85,4,5.09,4.07.29,5.76,2.88,5.89,6.71.3,8.81-.36,17.65.83,26.44a5.94,5.94,0,0,1-1.87,5.47c-2.06,1.42-4.43,1.3-6.75,1.3q-85.68,0-171.36,0c-2.16,0-4.35.09-6.31-1.08-2-1.42-2.26-3.59-2.34-5.76-.17-4.81-.25-9.62,0-14.43.29-5.13,1.64-6.91,6.77-7.52,4.12-.49,4.11-2.91,4.1-5.92,0-3.27-1.74-4.31-4.72-4.31-6.14,0-12.28,0-18.42,0-2.32,0-4.66.11-6.89-.76-3.57-4.38-7.57-8.4-11.55-12.43.11-4.23,1-8,5.35-10,3.07-1.08,6.26-.82,9.41-.82q58.22,0,116.42,0c1.83,0,3.66,0,5.49-.08,2.39-.15,3.64-1.38,3.77-3.77.09-1.67.09-3.33.09-5V144.29c0-.83,0-1.66,0-2.5-.13-5.94-.75-6.66-6.64-6.67q-70-.06-139.9,0c-5.73,0-6.31.59-6.31,6.34q0,108.4-.09,216.79c0,3.71,1.17,6.39,4,8.52.06,3.36-2.69,2.75-4.53,2.93-4.07.39-8.17.1-12.26.18-2,0-4,0-4.9,2.31-4.36,7.05-4.11,9.64,1.35,13.57,1.62,3.41,4,3.52,7.27,2.2,2.6-1,5.66-3.55,8.34.2,1.58,7.76.43,15.6.74,23.39.13,3.49.1,7,0,10.48-.09,3.29,1.13,5,4.62,4.93,2.34,0,4.69.23,6.49,2,2,3,.59,5.6-1.08,8.14a6.59,6.59,0,0,1-4.69,2.37c-5.37.53-9.08,3.4-11.65,8a5.62,5.62,0,0,1-2.74,2.72c-4.38,1.36-8.87.65-13.3.71-7.6.12-15.2.06-22.8,0-2.31,0-4.65.11-6.68-1.33-1.84-1.72-1.43-3.92-1.23-6.07,1.39-14.72,4-29.29,5.63-44,.34-3,.63-5.94,1.06-8.9.66-4.53-.33-5.76-5.07-5.64-17.13.41-34.2-1.37-51.33-1.18-12.28.13-24.55-1.28-36.86-.9-5.84.18-6.46.52-7.34,6.38-2.7,18.24-4.61,36.58-7,54.86-.25,2-.46,4-2.09,5.44-1.88,1.33-4.05,1.32-6.21,1.33q-16.65,0-33.3,0c-2.33,0-4.67,0-6.64-1.54a7.14,7.14,0,0,1-1.76-5.06c-.12-8.83-.1-17.66,0-26.48a7,7,0,0,1,1.49-4.66,1.36,1.36,0,0,1,1.78-.21c2.32,2.49,1.77,5.63,1.73,8.56-.06,3.86,1.66,5.37,5.43,5.34,9-.07,18-.1,27,0,4.13,0,5.78-1.79,5.52-5.75-.08-1.16,0-2.34,0-3.5q0-136.44,0-272.86c0-9.69,0-9.7-9.6-9.7h-133c-1.49,0-3,.05-4.49,0-3.38,0-4.82,1.69-4.79,5,0,1.67,0,3.34,0,5V417.44c0,1.67,0,3.34.06,5,.12,2.16.66,4,3.32,4.12s3.33-1.71,3.46-3.91c.1-1.67.07-3.33.07-5,0-23,0-46,0-69,0-2.87-.71-6.15,2.69-7.94,3,2.12,2.3,5.32,2.31,8.22q.09,48.67,0,97.37c0,6.63,2.41,11.59,8.62,14.42A15.48,15.48,0,0,0,130,461.9c2.34,0,4.69.08,6.57,1.84,2.34,8.19,2.61,16.36-.18,24.52-1.92,1.67-4.27,1.66-6.61,1.67q-61.38,0-122.76,0C4.51,489.93,2,489.94.08,487.9Z"/>
            <path class="cls-2"
                  d="M.08,487.9l135.86,0c3.47,4.35,2.37,9,1,13.72-1.63,2.08-4,2.11-6.34,2.2-3.65.15-7.32-.1-11,.16-6.32.45-10.91,4.75-11.42,10.5-.44,5,3.4,9.95,9,11.76a20.8,20.8,0,0,0,6.41.7c10.8.06,21.6,0,32.4.06,2.78,0,5.74-.32,7.88,2.17A8.12,8.12,0,0,1,165,533.9c-.4,12.77,1.53,25.48,1.12,38.27-.24,7.44-.37,14.9.74,22.35.5,3.35.84,7-1.11,10.2-2,2.22-4.77,2.08-7.42,2.1-8.81.06-17.64.3-26.44-.08-5.57-.23-9.79,1-12.07,6.43-2.27,2.24-5.32,2.6-8.21,3.33-4.84,1.23-9.81,2-14.43,3.94-2.49,1-6,1.83-6,5.25,0,3.18,3.52,3.67,5.84,4.7,5,2.23,10.45,3.35,15.82,4.49,17.45,3.69,35.13,5.64,52.88,7.28C186.15,644,206.56,645,227,646c32,1.53,63.93.42,95.89.78,24.64.28,49.22-1.11,73.78-2.86,24.91-1.77,49.75-4,74.25-9,6.52-1.34,13.09-2.65,19-5.92,4.18-2.3,4.27-4.29.1-6.74-7.77-4.55-16.7-5.43-25.26-7.39a128.39,128.39,0,0,0-13.3-2.16c-2.19-.27-4.25-.93-5.47-3-1.89-6.2-1.13-12.54-.65-18.79.28-3.64.7-7.27.62-10.92-.51-22.44,1.57-44.82,1.12-67.26-.11-5.45,1-10.89,1-16.39,0-3.66,2-6,5.72-6.28,2.59-.16,4.78-1.28,7.1-2.12l184.57-.08c2.36,1.18,2.48,3.43,2.43,5.56-.46,18.06,1.75,36.06,1.06,54.11-.07,2,0,4-.93,5.83-1.54,2.53-4.13,3.18-6.77,3.7-6.69,1.33-13.35,2.81-19.89,4.79-2.88.88-5.72,1.78-8.12,3.69-3.34,2.65-3.3,4.64.44,6.8,5.54,3.2,11.72,4.84,17.85,6.28,15.74,3.7,31.77,5.73,47.84,7.24,25.34,2.4,50.74,3.61,76.19,4.38,17.65.53,35.31,1.09,52.91.47,27.23-1,54.5-1.43,81.67-4.43,20.7-2.28,41.38-4.26,61.46-10.1a29.67,29.67,0,0,0,8.73-3.63c3.57-2.43,3.58-5-.1-7.37s-8.16-3.7-12.53-4.82c-4.19-1.08-8.46-1.87-12.49-3.52-3-2.4-6.4-3.07-10.2-3-7.44.17-14.89.09-22.34,0-2.63,0-5.35.15-7.45-2-1.57-2.18-1.36-4.71-1.38-7.18-.15-18,1.63-36,1.07-54.08-.07-2.34-.24-5.11,3.14-5.73-.6,4.37,2.78,2.89,4.66,2.9,26.73.09,53.47.06,80.2.06,5.65,0,11.29,0,16.94,0V725.79a5.13,5.13,0,0,1-4.09,1.5c-1.33,0-2.66,0-4,0q-491.82,0-983.64,0c-2.73,0-5.73.9-8.08-1.46Z"/>
            <path class="cls-3"
                  d="M164.79,604.93q-.94-38.17-1.91-76.34a4.06,4.06,0,0,1-1.55-3c.1-7.62-1.43-15.18-1-22.81.2-1.16-.28-2.32-.15-3.46.44-3.92-1.36-5.91-5.18-6.3-2.79-1.54-2.89-4.26-2.95-6.91-.12-5.3-.1-10.6,0-15.89,0-3.45-1.2-5.41-4.87-5.26-4.37.18-6-2.18-5.59-6.21.33-3.52-1.14-7.31,1.53-10.51,2-1.45,4.4-1.33,6.72-1.33q28.42,0,56.86,0c2.67,0,5.36-.07,7.45,2.05q22.9.61,45.82,0c1.78-1.84,4.07-2,6.44-2q45.58,0,91.15,0c2.37,0,4.67.16,6.43,2.06l43.88,0c4.86-3,26.41-2.93,31.12,0,9.29.07,18.58.3,27.87.15,3.61-.07,5.39.87,4.83,4.71a17.22,17.22,0,0,0,0,2.49c0,6.58,0,6.71-6.71,6.85-3.14.06-4.46,1.05-4.33,4.36.27,6.79.21,13.6.29,20.4.17,3.6-2.17,4.2-4.9,3.75-5.3-.88-6.21,1.62-6.29,6.37q-.72,44.06-2,88.08c-.24,8-.77,15.91-.52,23.87,3.43,7.46,1.89,15.25,1.18,22.89-.28,3.1-3.31,3.85-6.16,3.78-3.17-.08-5.31-1.58-6.1-4.77-1.84-7.51-1.21-15.11-.82-22.7.05-12.93-1.48-25.81-1.29-38.75.29-20.57-1.7-41.09-1.08-61.67.12-3.81-1-7.55-1.08-11.38,0-1.67-.46-3.35-2.54-3.76-5.68.1-11.36.5-17,0a38.22,38.22,0,0,1-7.48.31H210.43c-3.51,0-7,0-10.3,1.36-5-2-10.42-1.14-15.62-1.78-3.41-.18-4.81,1.56-4.7,4.84a32.3,32.3,0,0,1-.48,4.47c-.8,8.74.38,17.54-.78,26.26-1.48,25.12-.66,50.3-2,75.42a26.08,26.08,0,0,1,.15,8.59c1.09,6.19-.52,12.25-.93,18.35-.23,3.27-2.34,5-5.68,5.1-4,.06-6.33-2.14-6.77-5.9a84.42,84.42,0,0,1,0-17.41C163.17,610.35,162.54,607.38,164.79,604.93Z"/>
            <path class="cls-4"
                  d="M420,367.9c-6.21-.63-6.09-4.77-6.08-9.69q.21-109.17.1-218.34c0-6.77,0-6.77,6.81-6.77H563.75c7.19,0,7.2,0,7.2,7.16V422.57c0,6.39,0,6.4-6.68,6.4H440.83c-2.63,0-5.25-.06-7.88-.09-1.53-6.17,3-14.57,9.69-17.92,2.65-1.33,5.52-1,8.33-1.05q45.64,0,91.29,0c7.43,0,7.66-.22,7.66-7.47q0-50.37,0-100.74c0-2.13.34-4.35-1-6.26a8.73,8.73,0,0,0-6.52-1.92c-21.88,1.57-43.76-.51-65.64-.06-11.45.24-22.9.06-34.35,0-2.7,0-5.34,0-7.44,2.05-1.31,2.16-.9,4.54-.9,6.84,0,18.14-.07,36.28,0,54.41,0,3.33-.7,6.62-.23,9.94.36,8.13.11,16.25.14,24.38a9.06,9.06,0,0,1-1.24,5.24c-1.32,1.54-2.6.83-3.88-.09A15.89,15.89,0,0,1,423,379.12a7.75,7.75,0,0,0-1.34-7.45C420.77,370.58,419.24,369.72,420,367.9Z"/>
            <path class="cls-5"
                  d="M112.94,341c-1.47,1.73-.92,3.82-.92,5.76,0,25.65-.15,51.31.08,77,0,4.72-1.79,5.39-5.85,5.43-4.26,0-5.28-1.45-5.28-5.5q.15-142.17,0-284.33c0-4.85,1.53-6.28,6.29-6.26,47.82.14,95.63.08,143.45.09,6.24,0,6.37.13,6.37,6.5q0,141.67.09,283.33c0,4.83-1.32,6.31-6.15,6.15-10.32-.35-20.66-.29-31,0-4.09.1-5.29-1.37-5-5.2.27-3.65.06-7.33.06-11,.54-3,3.05-2.68,5.06-2.85,3.48-.28,7-.06,10.49-.11,1.81,0,3.7.22,5.22-1.14,1.48-2,1.72-4.25,1.71-6.62q0-50.26,0-100.54a10.63,10.63,0,0,0-1.21-5.74,5.56,5.56,0,0,0-1.25-1.17,10.09,10.09,0,0,0-5.79-1.22c-31.3,1.35-62.6-.76-93.89,0-2.5.06-5,0-7.5,0-6.92.07-8.34,1.53-8.36,8.65,0,9.16,0,18.32,0,27.48A15.58,15.58,0,0,1,112.94,341Z"/>
            <path class="cls-3"
                  d="M898.08,484.89c-1.3.94-1,2.36-1,3.64q-.62,31.52-1.17,63c2,2.14,2.06,4.73,1.69,7.42,1,5-.7,9.85-.82,14.79-.08,3.36-1.82,5.7-5.53,5.69a5.61,5.61,0,0,1-6.06-5.36,66.94,66.94,0,0,1,0-14.84c-.19-2.55-.53-5.1.13-7.64-2-22.13.6-44.43-2.36-66.53,0-7.66-.39-15.33.2-23-.53-3.4,1.86-8.37-4.62-8.58a18.58,18.58,0,0,1-4.46.3c-3.41-.21-6.29.11-6.74,4.53-.14,1.35-.78,3.71-3.23,1.78-1.11-5.64-4.92-6.28-10-6.27q-84.42.22-168.83.08a37.29,37.29,0,0,1-7.47-.29,4,4,0,0,0-1,0c-3.11.56-6.58-.64-9.34.83-3.08,1.65-.89,5.62-2.39,8.2a6.92,6.92,0,0,1-.85,1.21c-4.61-.38-2.15-4.63-4-7.22-.84,11,.07,21.51-.58,32,1.11,6.16-1,12.16-.76,18.31A457.36,457.36,0,0,1,657.82,553c.35,6.46.23,12.93.09,19.4-.1,4.9-2,7-5.79,7.13-4,.11-6-2.07-6.16-7.26a81.49,81.49,0,0,0-.8-11.88,7.1,7.1,0,0,1,1.76-6.48c.29-22.05-.91-44.07-1.43-66.11-.21-10.94-.51-21.89-.58-32.83,0-3.39-2.12-3.41-4.3-3.08-4.57.7-5.74-1.28-5.44-5.54.34-5-.11-10,.14-14.93.18-3.49-1-5-4.51-4.45-6.74,1-4.6-4-5.06-7.33-.55-4.07,1.23-5.1,5-4.93,6.3.28,12.62.12,18.93.07,1.72,0,3.77.66,4.77-1.61,7.41-.59,14.84-.18,22.26-.24a7.11,7.11,0,0,1,5,1.65l38.13-.05c1.93-1.61,4.24-1.67,6.6-1.67,27.06,0,54.12-.34,81.17.14,12.61.22,25.21.18,37.82.39a17.31,17.31,0,0,0,6.4-.62c18.23.19,36.46,0,54.68.1,9.84,0,12.43,3.91,9.2,13.65a3.25,3.25,0,0,1-2.34,1.68c-5.57.34-5.88,4-5.61,8.31a59.06,59.06,0,0,1-3.08,23.84,2,2,0,0,1-1.22.86c-3-.9-1.71-3.92-3.4-6.52a27.53,27.53,0,0,0-.53,7.4c.6,4.47.23,8.95.27,13.42.06,6.34,0,6.34,6.58,6.34,8.13,0,16.26-.06,24.38,0,2.42,0,5.09-.3,6.63,2.35-10.65,1.13-21.34.18-32,.49C903,484.83,900.55,484.85,898.08,484.89Z"/>
            <path class="cls-6"
                  d="M112.94,341c.68-3.86,3.79-6.43,5.21-9.89.41-.46.85-.9,1.3-1.32,3.17-2.82,7.06-3.65,11.1-3.7,9.29-.11,18.59-.24,27.89,0,9.47-.17,18.94-.17,28.4-.13,2.66,0,5.33-.26,8,.3,4.18,0,8.27.27,12,2.48,5.58,3.28,9,8,9.12,14.51.22,21.3.09,42.61.08,63.91a13,13,0,0,1-1.75,5.65q-.06,18.06-.14,36.12l-70.84.1c-1.67,3.58-.54,7.36-.72,11-.25,5.35-1.56,6.21-6.65,3.91-16.5,1.43-23.7-5.21-23.3-23.13C113.37,407.56,112.91,374.25,112.94,341Z"/>
            <path class="cls-4"
                  d="M727.87,355.93q0-107.92,0-215.85c0-7,0-7,7.11-7H876.94c7,0,7,0,7,6.9l0,167.88c-6.14,3.78-12.49,2.41-18.86.82-2.22-2-2-4.76-2.12-7.39-.12-2.11.43-4.36-1.18-6.17a9.47,9.47,0,0,0-6.14-1.66c-32.88,1.26-65.75-.75-98.62,0-3.27.07-6.74-.62-9.28,2.32-.95,2.06-.7,4.24-.7,6.38,0,15.26,0,30.51,0,45.76,0,2.32.1,4.65-.8,6.87a4.58,4.58,0,0,1-1.06,1.67C739.29,358.49,733.51,359.35,727.87,355.93Z"/>
            <path class="cls-6"
                  d="M865,307.88h18.91l41.47.19c10.78.05,16.29,5.49,16.3,16.31q0,42.72,0,85.45c0,12.89-4.83,17.73-17.75,17.9-1,0-2,.14-3,.21-2.26,1.46-4.48,2.58-6-.92.78-12.27.78-12.27-11.44-12.27H857.07c-1.65,0-3.34.24-4.89-.59a3.25,3.25,0,0,1-1.64-2.3,17.92,17.92,0,0,1-.66-5.41q0-40.31,0-80.61c0-5.65,1-11,5.37-15C857.93,308.37,860.83,305.88,865,307.88Z"/>
            <path class="cls-7"
                  d="M364,448.94l-104,0c.58-13.62,3-27,4.52-40.55.89-8.07,2.32-16.08,3.32-24.14.32-2.55,1.48-3.38,3.9-3.36,23.28.16,46.54.94,69.8,1.82,8.15.31,16.31.19,24.47.3,5.81.07,6.62.76,5.94,6.28-1.63,13.33-3.43,26.64-5.2,40C365.85,435.8,364.9,442.37,364,448.94Z"/>
            <path class="cls-8"
                  d="M851.91,412.12l.27,2c-1.15.94-2.53.72-3.84.72l-125.93-.09c-.83,0-1.65-.15-2.48-.23-1.12-10-2.19-20.08-3.36-30.11-.94-8.05-1.92-16.11-3.06-24.14-.32-2.22.56-2.88,2.46-3.44,3.93-1.16,7.93-.76,11.9-.94l17.07,0a4.6,4.6,0,0,1,2.65-1.28c15.74-1.23,31.48-2.67,47.28-1.26,3.29.29,6.68-.51,9.88.85,2.34,1.81,2.7,4.51,3,7.15,1.49,14.06,3.43,28.06,5.15,42.1.71,5.81,1.3,6.42,7.17,6.46,8.33,0,16.65,0,25,0C847.54,410,850.09,409.91,851.91,412.12Z"/>
            <path class="cls-9"
                  d="M509.72,43.14q36.48,0,73,0c1.55,0,3.84-.91,4.51.93s-1.58,2.7-2.67,3.84c-6.68,7-13.82,13.49-19.94,21a8.69,8.69,0,0,1-7.4,3.22q-47.24-.15-94.47,0a9.24,9.24,0,0,1-7.42-3.19c-6.9-7.43-14-14.71-21-22.06-.77-.81-2.17-1.57-1.66-2.81.63-1.55,2.33-.9,3.57-.9Q473,43.11,509.72,43.14Z"/>
            <path class="cls-4"
                  d="M202.47,43.13q36.22,0,72.47,0c1.53,0,3.78-.93,4.44,1,.48,1.43-1.46,2.43-2.46,3.49-6.76,7.11-13.6,14.16-20.29,21.34a8.73,8.73,0,0,1-6.95,3.08q-47.49-.13-95,0c-3.13,0-5.08-1.06-7.11-3.52-5.93-7.18-13.33-13-19-20.45-1-1.36-3.72-2.23-2.7-4.21.89-1.72,3.36-.77,5.11-.77Q166.74,43.08,202.47,43.13Z"/>
            <path class="cls-4"
                  d="M895.85,43.12c-8.63,10.15-17.15,18.76-25.73,27.31-1.45,1.45-3.14,1.65-5,1.65q-47.7,0-95.4,0a8,8,0,0,1-6.09-2.75C756.41,62,749,54.87,742.28,47c-.73-.87-2.16-1.6-1.75-2.8.54-1.61,2.27-1,3.51-1,6.49,0,13,0,19.48,0H895.85Z"/>
            <path class="cls-10"
                  d="M214.29,412.8c0-21.31-.47-42.64.09-63.94.32-12.53-5.18-20.87-19.34-20.92-1.41-2.22.49-3.37,1.62-4.63,6.76-7.52,14.43-14.14,21.27-21.58.89-1,2.16-1.65,2.84-2.77,4.12-6.82,10.34-7.42,17.29-6v0c.78,1.4.44,2.93.44,4.4q0,55.06,0,110.14c0,1.46.41,3-.52,4.36-5.91.06-11.82.07-17.72.19-1.75,0-3.64-.53-5.2.82A4.11,4.11,0,0,1,214.29,412.8Z"/>
            <path class="cls-11"
                  d="M937.48,484.27c-11.82,0-23.64-.25-35.46,0-3.87.08-4.77-1.05-4.47-4.78.49-6.13.36-12.31.49-18.46,1.59-1.67,3.33-1.49,5.15-.44a1.91,1.91,0,0,0,.53.1c5.8-2.66,11.57-2.89,17.3.18,4.48,0,9,.07,13.42.13,7.36.1,12.12,4,12.86,10.48C948,477.68,944.42,482.36,937.48,484.27Z"/>
            <path class="cls-12"
                  d="M442,412.79c-6,3.67-6.66,10.36-9,16.08q-2,4.51-4,9.05c-1.77,1.1-3.44,1.87-4.06-1.13q1.09-3.41,2.2-6.81c-.62-4.27,1.79-7.74,3.34-11.32,2.38-5.46,2.05-10.19-1.82-14.84-3.08-3.71-5.62-7.85-8.52-11.71a13.79,13.79,0,0,0-6.07-5c-2.47.86-4.94,1.68-7.39,2.58-6,2.21-6,2.22-7.65-3.74-3.44-3.87-3.54-8.32-2.29-13-1.57-4.43.19-5.56,4.55-5.28,6.23.4,12.49.18,18.73.23,3.86,2,5.38,5.27,5.58,9.49.07,1.57.38,2.6-1.36,3.64-2.18,1.31-2.6,3.34-.74,5.62,2.7,3.33,5.2,6.83,7.79,10.25a7.57,7.57,0,0,1,4.24,3.62,52.17,52.17,0,0,0,5.6,6.2C442.93,408.44,443.83,410.46,442,412.79Z"/>
            <path class="cls-13"
                  d="M135.94,464c5.19.83,6.58-1.6,6.22-6.47-.2-2.76-1.33-6,1.15-8.48-.14,2-.4,4-.42,5.94-.06,7.6,0,7.73,7.36,8.15,2.87.16,3.7,1.39,3.66,4-.09,6.82,0,13.64,0,20.46,0,1.8-.38,3.83,2.24,4.27,2.6,3.42,2.53,6.9.21,10.43-6.83,2.3-13.64,3.08-20.35-.47q0-7,0-14Z"/>
            <path class="cls-9"
                  d="M414,387.12c1.82-1.27,3.31-1.7,4.91.63,4.31,6.26,8.85,12.36,13.31,18.51a9.26,9.26,0,0,1,.95,9.71l-6.1,14c-2.45-1.4-5.17-1.18-7.76-1-4,.35-5.52-1-5.43-5.23C414.18,411.58,414,399.35,414,387.12Z"/>
            <path class="cls-12"
                  d="M663.06,403.94q-3-7.1-6-14.2c-.45-1.07-.56-2.55-1.35-3.16-5.73-4.45-3.8-7.5.8-11.76,4.42-4.1,7.39-9.75,11.1-14.66,1.2-1.59,2.25-3.69.6-4.82-4.32-3-1.61-6.66-.67-9.28.84-2.34,4.32-3.37,7.47-3.24,4.65.17,9.31.25,14,0,3-.17,3.3,1.1,2.82,3.5-1,5-2,10.09-2.83,15.17-.37,2.28-1.19,3-3.25,1.76a1.83,1.83,0,0,0-.46-.18c-4.11-1.07-8.3-5.08-12-3.4-3.3,1.51-5.15,6.26-7.58,9.62-8.91,12.34-9.23,8.77-2.88,24.28,1.13,2.75,2.13,5.56,3.18,8.35.62,1.08.91,2.33-.19,3.1S663.6,405.22,663.06,403.94Z"/>
            <path class="cls-13"
                  d="M921,460.85l-17.3-.18c2.18-10.09,2.22-20.33,2-30.57-.05-2.41,1.09-3.19,3.31-3.09,2,.08,4,0,5.93,0,1.8,1.53,4,.65,6,.92Q921,444.4,921,460.85Z"/>
            <path class="cls-14"
                  d="M424.91,436.79c1.07,1.4,2.61,1.08,4.06,1.13,4.83,2.32,9.56,4.74,10,11l-31.12,0c1.23-6.23,5.05-9.84,11.72-11.07C421.37,437.51,423.14,437.14,424.91,436.79Z"/>
            <path class="cls-15"
                  d="M663.06,403.94c2.42,1.42,2.91.05,2.91-2,.82,2.33,2.91,2.19,4.81,2.59,5.66,1.17,10.29,3.54,11,10.11q-11.79.09-23.59.18c-1.45,0-3,.23-3.72-1.59C655.28,408.2,660,406.82,663.06,403.94Z"/>
            <path class="cls-16" d="M396.71,373,399,386c-5.19.48-5.39-3.72-5.56-6.84A6.51,6.51,0,0,1,396.71,373Z"/>
            <path class="cls-17"
                  d="M436.86,608.77c.3,7.6.72,15.2.85,22.8.07,4.06,2.8,3.16,5.16,3.33,2.66.2,3.92-.68,3.92-3.59,0-7.11.24-14.22.39-21.33,12.63,1.88,25.26,3.86,37.49,7.65,4.54,1.41,10.56,2.65,10.88,8s-5.92,6-9.94,7.39c-14.52,5-29.68,7-44.84,8.78-20.6,2.39-41.25,4-62,5.24-47.4,3-94.82,1.74-142.23,1.59-19.07-.06-38.19-1.21-57.18-3-25.23-2.39-50.59-4.24-75.25-10.75a48.17,48.17,0,0,1-13-5c-3.91-2.39-4.12-4.81-.69-7.9a18.77,18.77,0,0,1,8.33-4.2q10.17-2.43,20.35-4.82c1.59,1.28,1.71,3.14,1.85,5a14.67,14.67,0,0,0,1,4.34c.81,2,2.16,3.43,4.49,3.14s3.14-2.05,3.49-4.2c1.67-10.23,1.69-10.24,12-10.25,5.47,0,10.94-.06,16.41,0,2.31,0,4.7-.06,6.45,1.91.13,5.82.38,11.63.35,17.44,0,3.74,1.67,4.7,5.2,4.71,3.75,0,3.81-2,3.88-4.75.14-5.81.51-11.61.79-17.41,3.76-2.9,7.73-2.43,11.77-.78,2.66,2.46,2,5.75,2.13,8.83.11,2.63,0,5.28.09,7.92.07,1.65.1,3.56,2.4,3.63s2.46-1.79,2.54-3.47c.15-3,0-6,.16-8.92.17-2.81.41-5.63,2.63-7.77a5.14,5.14,0,0,1,2.75-1.09c11.28-.58,22.57-.49,33.86-.07,3.28.12,5,2.2,5.45,5.44.23,1.81,0,3.71.72,5.41.93,2.11,2.46,3.66,5,3.31s3.18-2.16,3.36-4.31a64.2,64.2,0,0,0,.07-7.47c-.18-5.19-1.39-6.52-6.57-6.58-11.63-.16-23.25,0-34.88-.1-2.73,0-5.75.55-7.72-2.27,1.17-2.7,3.65-2.64,5.94-2.67,12-.15,24-.62,35.89-1.27,26.63-1.46,53.25-.76,79.87-.63,22.58.12,45.19.85,67.74,2.63,6.45.52,12.92,1.16,19.41,1.25a15,15,0,0,1,8.1,2.08c2.39,2.16,2.06,5.09,2.19,7.88.21,4.79-.47,9.63.67,14.38.39,1.65.07,4.22,2.66,4s2.57-2.68,2.65-4.65c.17-4.31,0-8.63.1-12.94,0-2.48-.1-5,1.63-7.13C429.71,605.22,433.47,605.36,436.86,608.77Z"/>
            <path class="cls-17"
                  d="M646.92,553.94c.3,6.63.75,13.25.84,19.89,0,3.23,1.15,4.26,4.39,4.25,3.43,0,3.65-1.78,3.67-4.41,0-7,.25-13.95.4-20.92,2.86-3.94,6.35-3.12,10-1.32,2.56,3.37,1.54,7.31,1.71,11.05.14,3.14-.06,6.29.09,9.44.08,1.44,0,3.36,2.16,3.19,1.69-.13,1.76-1.83,1.74-3.12A131.79,131.79,0,0,1,673,555.14c.24-2.14.26-4.33,2-6,3.83-1.94,8.08-2,12.16-2.19,12.26-.7,24.5-1.63,36.76-2.38q41.82-2.54,83.68-1.6c17.91.42,35.84.78,53.74,1.93a17,17,0,0,1,6.74,1.6,4.39,4.39,0,0,1,.39,5.38c-2.1,2.15-4.86,1.9-7.49,1.92-10.16.06-20.31,0-30.47,0-7,0-7.56.63-7.56,7.8a23.09,23.09,0,0,0,.23,4.48c.32,1.58,1.07,2.87,2.86,3,2,.13,3.07-1.1,3.54-2.86.76-2.8-.06-6.27,2.94-8.13,3.16-2,6.8-1.23,10.26-1.27,6.16-.08,12.32,0,18.48,0,2.33,0,4.69,0,6.74,1.37,1.94,2,1.76,4.49,1.86,6.94.11,2.64-.08,5.28.19,7.9.1,1,.46,2,1.64,2.17,1.49.16,2-.94,2.13-2.17.29-2.79.05-5.6.21-8.39.15-2.63.1-5.37,2.88-6.92,3.4-1.06,6.75-1.67,9.78,1,.15,5.14.41,10.29.41,15.43,0,3.16,1.57,3.84,4.38,3.87s3.61-1.23,3.65-3.89c.09-5.14.51-10.27.79-15.41,1.55-1.51,3.52-1.76,5.54-1.78,5.65-.08,11.3-.19,16.94,0,5.41.22,6.59,1.36,7.48,6.68a15.64,15.64,0,0,0,.4,2.45c.63,1.83,1.58,3.38,3.82,3.28s3-1.76,3.55-3.61a25.48,25.48,0,0,0,.35-4.46c.18-2,.09-4,1.91-5.43a82.91,82.91,0,0,1,24.35,6.75c2.68,1.2,5.78,3,5.49,6.42s-3.38,5.24-6.33,6.41A132,132,0,0,1,932,582.84,610.23,610.23,0,0,1,866.35,590q-20.13,1.2-40.27,2c-16.79.62-33.57,1.09-50.35.76-20.26-.4-40.53-.76-60.74-2-27.61-1.77-55.23-3.9-82.35-9.86a80.12,80.12,0,0,1-19.79-6.6c-6.26-3.22-6.47-6.73-.64-10.47,7.57-4.86,16.45-5.85,24.95-7.88C640.39,555.12,643.67,554.58,646.92,553.94Z"/>
            <path class="cls-6"
                  d="M136,501.84l20.24,0c2-1.8,3.91-1.56,5.84.07.56,8.9,1.15,17.79.82,26.72-14,0-27.95.1-41.92,0-8.8,0-14.86-5.64-14.83-13.43,0-7.95,5.88-13.19,14.88-13.29C126,501.84,131,501.86,136,501.84Z"/>
            <path class="cls-13"
                  d="M164.86,612.83c-9.44,0-18.88.15-28.31-.06-3.29-.07-4.58,1-4.26,4.21a44.24,44.24,0,0,1,0,4.46c0,3.75-2,6-5.61,6.35-3.89.39-6.4-1.67-7-5.49-.46-3.09-.39-6.26-.55-9.39,1.16-7.25,2.53-8.21,9.73-8.11,12,.17,23.94.1,35.91.13C164.81,607.56,164.84,610.2,164.86,612.83Z"/>
            <path class="cls-18"
                  d="M935.88,555.9c0,3.31,0,6.62-.18,9.92-.21,3.57-1.94,6-5.81,6s-5.44-2.61-5.8-6.11c-.72-7-.7-7-7.85-7H895.89q0-3.59,0-7.19c11,0,22,.14,32.92,0C932.37,551.45,934.44,553,935.88,555.9Z"/>
            <path class="cls-2"
                  d="M415.82,606.77c-24.94-2.31-49.94-3.26-75-4.2-29.76-1.12-59.5-.56-89.24-.56-16.74,0-33.48,1.21-50.23,1.92a9.5,9.5,0,0,0-2.34.71,1.68,1.68,0,0,1-2.57,0c-1.35-1.67-1.43-3.67-1.45-5.67-.24-20.09,1.55-40.14,1.14-60.24a19.38,19.38,0,0,1,2.08-9.64c2.17-2.4,5.1-2.13,7.9-2.15,13-.07,26,0,38.95,0a25.78,25.78,0,0,0,6.93-.68c6.23-1.72,10.21-6.44,9.64-11.64A12.29,12.29,0,0,0,249.61,504c-8-.24-16-.06-24-.08-6.66,0-13.32,0-20,0-2.48,0-5,.09-7.09-1.77-1.48-2.5-1.74-4.9.63-7,.48-3.89,3.39-3.34,6-3.34q56.73,0,113.47,0,47.24,0,94.48.14c3.18,4.57,1.32,10.07,2.76,15a5.28,5.28,0,0,1,.05,1.49c-.58,23.61,1.59,47.18,1.09,70.79-.16,7.13,1.46,14.21.93,21.39C417.85,602.79,418.07,605.2,415.82,606.77Z"/>
            <path class="cls-19"
                  d="M415.82,606.77q-.82-35.34-1.66-70.67-.51-22.12-1-44.25l15.69,0c3.79,4.74,2,10.2,1.75,15.36-.14,3-.65,5.93-.59,8.92.46,23.75-1.6,47.46-1.12,71.22.11,5.28-1.18,10.55-1,15.88a6.39,6.39,0,0,1-1.73,4.55c-.15,7.15-.28,14.3-.47,21.44-.08,3.09-.14,5.75-4.73,5.77-4.38,0-4.27-2.32-4.35-5.32C416.47,622.05,416.12,614.41,415.82,606.77Z"/>
            <path class="cls-20"
                  d="M199.2,495l.18,6.74a8.45,8.45,0,0,1,1.67,5.08c0,5.46.06,10.91,0,16.37,0,2-.27,4-2,5.35q-1.74,38.08-1.94,76.19c2.21,2.7,2.32,5.37-.07,8-1.12,6.06-.87,12.21-.79,18.32,0,3.72-2,3.79-4.74,3.82s-4.41-.36-4.37-3.69c.09-6.12-.14-12.25-.24-18.37-3.06-4.23-1.43-9.39-2.76-14a3.33,3.33,0,0,1,0-1c.65-21.29-1.4-42.53-1-63.82.12-7,1.52-13.92-.55-20.81a41.24,41.24,0,0,1-.11-11.37c-.26-3.47-1.1-7,1.65-10,3.77,0,7.54.06,11.3-.06C197.66,491.78,199.14,492.48,199.2,495Z"/>
            <path class="cls-2"
                  d="M426.23,607.8c.35-19.24.64-38.48,1.09-57.71.44-19.41,1-38.81,1.56-58.22,3.69-.75,5.31.24,5.38,4.51q.74,42.52,2,85c.29,9.11.79,18.22.6,27.34A47.44,47.44,0,0,0,426.23,607.8Z"/>
            <path class="cls-21"
                  d="M184.17,512.74c1.51,4.71.7,9.56.8,14.34.47,23.79.74,47.58,1.29,71.37.11,4.8,1,9.59.59,14.42l-11.77,0c0-2.67.07-5.34.11-8,2.46-3.57,1.5-7.74,1.75-11.59.86-13,.75-26,.57-38.93-.12-8.3,1.05-16.6,0-24.9,4.44-3.8,4.78-9,5-14.32A2.89,2.89,0,0,1,184.17,512.74Z"/>
            <path class="cls-22"
                  d="M178,528.89c2.32,21.09.71,42.25,1,63.38.05,3.3-.8,6.6-1.14,9.91-.18,1.74-.75,2.88-2.74,2.64q.94-38.09,1.88-76.16C177.49,528.32,177.81,528.41,178,528.89Z"/>
            <path class="cls-23"
                  d="M178,528.89a6.11,6.11,0,0,0-1-.23c.19-8.94-.58-17.9.82-26.8,2-1.61,4-1.88,6,0q.14,5.44.25,10.87a48.93,48.93,0,0,0-.08,7C184.68,524.58,184,528.4,178,528.89Z"/>
            <path class="cls-24"
                  d="M162.06,501.87l-5.84-.07c0-3.31-.07-6.61-.1-9.92,4.84-1.2,6.62.87,6.07,5.58C162,498.92,162.09,500.4,162.06,501.87Z"/>
            <path class="cls-2" d="M183.92,501.87h-6a38.73,38.73,0,0,0-.11-4.45c-.69-5,1.57-6.58,6.22-5.5Z"/>
            <path class="cls-10"
                  d="M432.06,269.94,432,233c4.74-7.11,11.46-12.39,17.39-18.38q14.53-14.72,29.23-29.26C490.27,173.79,501.51,161.78,514,151c10.08-1.55,20.23-.71,30.36-.81,8.39-.07,7.62-1.08,7.54,7.81-.76,1.76-.38,3.62-.39,5.43,0,27-.08,53.94,0,80.92,0,4.49-1.84,7.64-4.48,11.14-9.09,12-20.4,16.2-35.7,15.34-24.57-1.39-49.28-.36-73.93-.4C435.64,270.46,433.76,271,432.06,269.94Z"/>
            <path class="cls-10"
                  d="M442,412.79c.39-2.64,0-4.73-2.88-6-2.5-1.08-3.54-3.7-4.89-5.91.38-3.12,2.86-4.79,4.82-6.76C471.14,362,503.39,330,535.31,297.63c5-5.08,10.23-6,16.56-4.59,0,38.09,0,76.17.14,114.25,0,4.36-1.83,4.79-5.35,4.78q-48.9-.12-97.81,0C446.54,412,444.18,411.78,442,412.79Z"/>
            <path class="cls-25"
                  d="M551.87,293c-6.69-1.22-11.32,1.57-16.06,6.37-32.46,32.89-65.25,65.46-97.94,98.13-1.17,1.17-2.44,2.24-3.67,3.36l-2.94-4c1.49-7.81.31-15.7.66-23.54.1-2.14.06-4.28.08-6.42a25.09,25.09,0,0,1,4.47-6.53q32.92-32.79,65.8-65.72c-21.08.14-42.13.05-63.18.05-2.47,0-5.06.3-7-1.73,1.45-1.66,3.41-1,5.15-1q54.78,0,109.56,0C548.49,292,550.45,291.32,551.87,293Z"/>
            <path class="cls-10"
                  d="M432,293h72.79c.42,1.85-.83,2.42-1.58,3.17q-34.44,34.5-68.92,68.92a23.27,23.27,0,0,1-2.33,1.84Q432,330,432,293Z"/>
            <path class="cls-25"
                  d="M514,151c-1.06,4-4.62,6-7.24,8.64-11.6,11.81-23.36,23.45-35.07,35.16-11.35,11.34-22.68,22.72-34.09,34A48.1,48.1,0,0,1,432,233q0-17.52,0-35a23.39,23.39,0,0,1,5.15-7.22c11.55-11.44,23-23,34.54-34.43,1.46-1.46,2.66-3.41,4.81-3.62-12.3.23-24.87.08-37.43.09-2.45,0-5,.31-7-1.71,1.47-1.63,3.42-1,5.17-1,13-.05,26-.62,38.89.14C488.76,151,501.36,150.71,514,151Z"/>
            <path class="cls-10"
                  d="M432.08,151.09h45.77c0,.62.19,1.07,0,1.21C462.82,167.74,447.76,183.19,432,198Q432.06,174.54,432.08,151.09Z"/>
            <path class="cls-26"
                  d="M432.06,269.94Q479,270,526,270a7.78,7.78,0,0,0,6.45-2.78c4.71-5.16,9.68-10.09,14.79-14.86a11.36,11.36,0,0,0,3.88-9.16c-.16-26.47-.1-52.94-.07-79.4,0-1.95-.53-4,.86-5.79,0,36.12,0,72.25.15,108.38,0,4.57-2.65,4.54-5.87,4.53q-43.47,0-86.93,0c-7.49,0-15,0-22.48,0C435.14,270.94,433.36,271.45,432.06,269.94Z"/>
            <path class="cls-10"
                  d="M238,151.05q0,49,0,97.95c-6.28,8.26-13.26,15.79-22,21.49-30.78,0-61.56-.09-92.34.1-4.21,0-5.31-1.21-5.18-5.29.29-9.47.19-19,0-28.44a12.14,12.14,0,0,1,3.81-9.34q36.19-36.15,72.36-72.32c3.19-3.19,6.77-5,11.53-4.72C216.8,151,227.44,149.92,238,151.05Z"/>
            <path class="cls-25"
                  d="M238,151.05c-10.82,0-21.63.08-32.44-.05a9,9,0,0,0-7,2.95q-38.2,38.37-76.58,76.57a8.93,8.93,0,0,0-3,7c.15,9.14.23,18.3,0,27.44-.11,4,1.2,5.12,5.13,5.1,30.94-.15,61.89-.11,92.83-.13a.86.86,0,0,1,1.23.12c-1.6,1.27-3.49.9-5.29.9-29.76,0-59.53-.07-89.29.11-4.39,0-5.65-1.2-5.63-5.61.17-36.41.09-72.82.12-109.22,0-1.78-.51-3.7.93-5.24,2.15,1.92,1.85,4.52,1.86,7,.06,9.65,0,19.29.05,28.94,0,1.61-.4,3.3.81,5.55,13.39-12.87,26.1-26.06,39.85-39.57-12.29,0-23.69,0-35.09,0-2.61,0-5.4.42-7.48-1.86,1.39-1.32,3.13-.9,4.75-.9,13.14,0,26.3-.54,39.4.16,10,.53,19.93,1.2,29.84.58,13.29-.83,26.55-.64,39.83-.73C234.58,150.08,236.51,149.55,238,151.05Z"/>
            <path class="cls-25"
                  d="M238.06,292.94c-7.06-1-11.65,1.91-16.44,7.38a168.56,168.56,0,0,1-19.19,19.16c-2.85,2.35-5,5.61-7.39,8.46h-37c-.41-2.62,1.68-3.83,3.13-5.29q11.25-11.32,22.56-22.59a18.54,18.54,0,0,0,3.64-4.22c-1.44-1.47-3.17-.93-4.69-.93q-27.69-.07-55.37,0c-6.2,0-6.33.17-6.38,6.52,0,7.48,0,15,0,22.44,0,2.48.18,5-1.89,7a5.51,5.51,0,0,1-.89.22c0-11.49,0-23-.17-34.45,0-3.36.87-4.71,4.48-4.7q56,.15,111.88.06C235.65,292,237,291.78,238.06,292.94Z"/>
            <path class="cls-25"
                  d="M218.15,270l-1.23-.12c1.1-4.19,5.35-5.61,7.88-8.59,3.83-4.55,8-9.13,13.24-12.33,0,5.49-.11,11,.11,16.46.13,3.41-1,4.82-4.53,4.66C228.47,269.88,223.31,270.05,218.15,270Z"/>
            <path class="cls-25"
                  d="M238,411.86q0-59.44.08-118.9c1.36,1.57.88,3.49.89,5.27q0,54.21,0,108.42C239,408.42,239.52,410.36,238,411.86Z"/>
            <path class="cls-1"
                  d="M677.08,452q91.67,0,183.34-.16c3.85,0,5.11,1.22,4.67,4.84a26.67,26.67,0,0,0,.11,4,2.59,2.59,0,0,1-1.07,1.26c-2.34,1.15-4.86.88-7.33.9-11.44.08-22.88-.13-34.32.11-3.89.09-7.64.79-9.92,4.53-3.77,6.18-1.23,11.83,6.74,14.91a23.06,23.06,0,0,0,7.87,1.09c11.47,0,23-.11,34.42,0,2.93,0,6.13.27,4.44,4.8-1.89,1.75-4.27,1.66-6.6,1.66q-88.42,0-176.85,0c-2.33,0-4.69.05-6.7-1.45-2.46-2.59-2.27-5.88-1.8-8.91,1.08-6.92.74-13.85.83-20.77C675,456.29,675,453.8,677.08,452Z"/>
            <path class="cls-20"
                  d="M865.77,487.83c.79-3.63-1.77-3.11-3.88-3.11-12.75,0-25.5,0-38.24,0-1.79,0-3.65.41-5.36-.53,1.82-2.66,4.66-2.23,7.26-2.25,10.66-.08,21.32,0,32-.05,5.87,0,6-.47,6.42-6.21.34-4.89-1.54-9.94,1-14.67l.26-.35c2-2.49-1.08-7.05,2-8.11,3.57-1.24,7.85-.47,11.82-.57,2.59,2.72,1.81,6,1.62,9.25,1.24,6.67-.92,13.22-.7,19.87.77,23.76-1.53,47.49-1,71.26.06,2.36-.11,4.69-2.11,6.38-1.47,5-.65,10.17-.78,15.25-.07,2.9-.86,4.16-4,4.12-2.91,0-4.17-.88-4.11-4,.1-5.13-.15-10.25-.25-15.38-1.95-2.27-1.72-4.58-.15-6.93l-.26-4.63c-2.22-2.21-2.3-5.07-2.36-7.91-.1-5.83-.24-11.67,0-17.48.38-9-.91-17.94-1-26.92C863.85,492.34,863.87,489.83,865.77,487.83Z"/>
            <path class="cls-20"
                  d="M677.08,452l-.76,35.84a7.49,7.49,0,0,1,1.58,4.11c-.09,9.6.65,19.2-.5,28.77-.89,7.43-.21,14.89-.41,22.33-.07,2.51-.07,5-2,6.94-.31,7.95-.72,15.9-.89,23.85-.06,2.77-.58,4.24-3.84,4.28S666,576.85,666,573.7c0-7.29-.3-14.58-.49-21.88-2.3-4.24-2.45-8.92-2.52-13.55-.16-10.49.11-21-.12-31.47-.14-6.3-1.58-12.55-.62-18.9-.6-6.29-.26-12.6-.26-18.9,0-1.85.29-3.66,1.85-5C664.5,451.76,664.5,451.76,677.08,452Z"/>
            <path class="cls-27"
                  d="M876.8,558.71c.19-32.6,1-65.2,2.05-97.78,2-1.64,3.91-1.9,5.86,0l.14,23.55c-1.08,4.57-.5,9.2-.44,13.81.2,16.08-.66,32.18,1,48.23.19,1.84.24,3.64,1.4,5.18,0,2.34-.07,4.69-.11,7Z"/>
            <path class="cls-28"
                  d="M663.85,487.83c1.07,16.86,1.1,33.75,1.3,50.63.05,4.46,1.17,8.89.35,13.36-3.1.3-6.31-.58-9.28.93.83-21.62.32-43.28,1.76-64.89C659.93,486.17,661.89,486.09,663.85,487.83Z"/>
            <path class="cls-29"
                  d="M663.85,487.83l-5.87,0c.17-10.73.3-21.46.55-32.19,0-1.66-.33-3.94,2.61-3.72,2.62.21,1.83,2.28,2,3.75.33,2.77-.33,5.62.68,8.34Z"/>
            <path class="cls-30"
                  d="M886.77,551.71c-3.18-.38-2.52-3-2.84-5-1.89-11.38-.74-22.86-.9-34.29-.11-8.28-.57-16.6.67-24.85.17-1.12-.07-2.37,1.15-3.1C886.4,506.87,885.82,529.31,886.77,551.71Z"/>
            <path class="cls-31" d="M884.71,460.94h-5.85q.06-4.5.13-9C885.74,451.78,884.41,451.27,884.71,460.94Z"/>
            <path class="cls-32"
                  d="M903.19,460.57,898,461c0-2.3,0-4.59,0-6.89,0-1.72,1-2.2,2.53-2.22s2.43.58,2.43,2.28C903,456.31,903.12,458.44,903.19,460.57Z"/>
            <path class="cls-10"
                  d="M119,330.84c0-11,.11-21.93-.06-32.9,0-3.48.71-5.07,4.66-5,21.43.16,42.87.06,64.3.1,1.24,0,2.91-.59,3.5,1,.36,1-.74,1.76-1.44,2.44l-31.93,31.46c-7.41.07-14.83.3-22.23.18C130,328,124.36,328.2,119,330.84Z"/>
            <path class="cls-33"
                  d="M745.08,269.89q0-17.92,0-35.86a19.74,19.74,0,0,1,4.79-6.87q35.8-35.72,71.52-71.53c3.46-3.47,7.13-5.47,12.28-5.17,10.39.61,20.83-.57,31.23.62q0,48.45,0,96.92c-1.32,5.76-6.16,8.89-9.73,13-2.08,2.37-4.55,4.37-6.76,6.63a9.58,9.58,0,0,1-7.18,2.91q-46.9,0-93.82,0A3,3,0,0,1,745.08,269.89Z"/>
            <path class="cls-10"
                  d="M851.91,412.12c-11.47,0-22.94-.28-34.4.05-4.32.13-5.88-1.4-6.34-5.38-1.65-14.15-3.44-28.27-5.18-42.41-.38-3.13-.75-6.25-1.12-9.38-1.85-1.16-3.89-.26-5.82-.55-1.42-.22-3.46.77-4.14-.75-.76-1.73,1.17-2.88,2.18-4.16,3.84-4.84,8.52-8.9,12.83-13.27q20-20.28,40.15-40.4c4.45-4.47,9.57-3.59,14.83-2.89q0,7.45.07,14.9c-9.84,3.05-12.82,7.07-12.85,17.4Q852,368.69,851.91,412.12Z"/>
            <path class="cls-10"
                  d="M745.07,354.89,745,294c.92-2,2.76-1.5,4.35-1.5q33.42,0,66.84,0c1.24,0,2.92-.69,3.63.75s-.51,2.85-1.48,3.93c-7.15,7.88-14.93,15.15-22.42,22.71-9.24,9.33-18.92,18.26-27.73,28C761.62,355.14,754.07,356.8,745.07,354.89Z"/>
            <path class="cls-25"
                  d="M864.86,151.08c-10.49,0-21,.13-31.48-.1a11,11,0,0,0-8.72,3.73q-37.33,37.56-74.86,74.92c-1.53,1.52-3.17,2.94-4.76,4.4V197c3.66-5.21,8.45-9.38,12.89-13.87,8.66-8.74,17.4-17.41,26.1-26.13a15.9,15.9,0,0,0,3.5-4.17c-12.09,0-23.71,0-35.32,0-2.45,0-5.06.45-7.07-1.61,1.25-1.63,3-1,4.62-1,15.11,0,30.24-.42,45.32.18,9.12.36,18.27,1.32,27.31.52,12.45-1.1,24.87-.39,37.29-.69C861.43,150.05,863.38,149.49,864.86,151.08Z"/>
            <path class="cls-25"
                  d="M745.07,354.89c9.89,1.88,16.5-2.7,23.11-9.77,13.79-14.74,28.5-28.63,42.9-42.79,2.79-2.73,5.93-5.11,9.06-7.8-2.53-2.06-4.07-1.53-5.48-1.53q-31.92-.06-63.84,0c-2,0-4-.17-5.79,1,.26-2.55,2.26-2,3.81-2q56.17,0,112.37,0c1.31,0,2.7-.22,3.69,1-6.9-1.23-11.7,1.76-16.4,6.71-12,12.59-24.38,24.78-36.82,36.91-5.48,5.35-11.48,10.18-17.83,15.76,4.91,2.57,8.39.28,11,2.64-20-.53-40,.25-59.93.89C745,355.56,745,355.22,745.07,354.89Z"/>
            <path class="cls-10"
                  d="M745.14,151.14H791c-.2,2.44-2,3.3-3.21,4.52Q768.37,175.36,748.9,195a5.92,5.92,0,0,1-3.86,2Q745.09,174.06,745.14,151.14Z"/>
            <path class="cls-34"
                  d="M745.08,269.89l94.64.09c2,0,3.9-.13,5.47-1.76,6.53-6.78,13.14-13.49,19.71-20.22,0,6.15-.06,12.3.09,18.44.08,3-.67,4.54-4.12,4.54q-56.34-.12-112.67,0C747.05,271,745.84,271.05,745.08,269.89Z"/>
            <path class="cls-35"
                  d="M325.79,416.86c.13,4.94-4,10.49-7.91,10.76-3.41.23-6.58-3.45-6.75-7.84-.21-5.18,3.69-10.52,7.81-10.68C322.51,409,325.68,412.54,325.79,416.86Z"/>
            <path class="cls-36"
                  d="M766.87,388.34c0,4.26-2.55,7.4-5.83,7.26-3.62-.17-6.92-4.43-7-9,0-4.12,2.58-7.33,5.88-7.23C763.6,379.46,766.9,383.75,766.87,388.34Z"/>
            <path class="cls-13"
                  d="M197,612.79q0-4,.07-8l2-.13c14.11.05,28.22.18,42.32.13,7.1,0,8.75,1.44,8.8,8.66,0,2.66.06,5.32,0,8-.13,3.87-2.06,6.37-6.06,6.44s-6-2.22-6.83-5.94c-.65-2.93,1.61-7-1.54-8.62-2.54-1.28-6.17-.42-9.32-.43C216.58,612.81,206.79,612.81,197,612.79Z"/>
            <path class="cls-2"
                  d="M675,550c-.3-20.73.95-41.43,1.35-62.15l189.45,0q.75,29.67,1.51,59.34c-5.94-.12-11.88,0-17.79-.41-30.69-2.06-61.42-2.3-92.14-1.7-19.56.38-39.09,1.77-58.62,2.88C690.79,548.38,682.89,549.27,675,550Z"/>
            <path class="cls-21"
                  d="M867.53,551.8q.08,3.47.16,6.93c-10.17,0-20.34.2-30.5-.06-4-.11-5.91.9-5.34,5.2.24,1.76.35,3.66-.78,5.32a5.45,5.45,0,0,1-6,2.59,5,5,0,0,1-4.29-4.85,87.25,87.25,0,0,1,0-10.48c.26-3.75,2.78-4.85,6.28-4.81C840.53,551.76,854,551.75,867.53,551.8Z"/>
            <path class="cls-6"
                  d="M199,528.58q.18-13.4.37-26.8,24.45.06,48.89.11c9.22,0,15.37,5.32,15.48,13.26s-6.19,13.43-15.36,13.47C231.92,528.67,215.46,528.6,199,528.58Z"/>
            <path class="cls-10" d="M119,151h46.6L119,197.54V151Z"/>
            <path class="cls-6"
                  d="M864.94,461c1.34,6.25.57,12.59,1,18.87.22,3.34-1.06,4.28-4.27,4.26-14.45-.1-28.91,0-43.36,0-6.84-2-10.24-6.74-9.42-13.11.78-6.05,5.72-10,12.76-10C836.06,461,850.5,461,864.94,461Z"/>
        </g>
    </g>
</svg>